<?xml version="1.0" encoding="UTF-8" standalone="no"?>
<!-- Generator: Adobe Illustrator 25.2.1, SVG Export Plug-In . SVG Version: 6.00 Build 0)  -->

<svg
   version="1.1"
   id="Layer_1"
   x="0px"
   y="0px"
   viewBox="0 0 463.60001 147.30001"
   xml:space="preserve"
   sodipodi:docname="logotipo-ceara-branco-2021.svg"
   width="463.60001"
   height="147.3"
   inkscape:version="1.1 (1:1.1+202105261517+ce6663b3b7)"
   xmlns:inkscape="http://www.inkscape.org/namespaces/inkscape"
   xmlns:sodipodi="http://sodipodi.sourceforge.net/DTD/sodipodi-0.dtd"
   xmlns:xlink="http://www.w3.org/1999/xlink"
   xmlns="http://www.w3.org/2000/svg"
   xmlns:svg="http://www.w3.org/2000/svg"><defs
   id="defs519" /><sodipodi:namedview
   id="namedview517"
   pagecolor="#ffffff"
   bordercolor="#666666"
   borderopacity="1.0"
   inkscape:pageshadow="2"
   inkscape:pageopacity="0.0"
   inkscape:pagecheckerboard="0"
   showgrid="false"
   fit-margin-top="0"
   fit-margin-left="0"
   fit-margin-right="0"
   fit-margin-bottom="0"
   inkscape:zoom="1.89331"
   inkscape:cx="236.62263"
   inkscape:cy="39.877252"
   inkscape:window-width="1920"
   inkscape:window-height="1019"
   inkscape:window-x="0"
   inkscape:window-y="29"
   inkscape:window-maximized="1"
   inkscape:current-layer="Layer_1" />
<style
   type="text/css"
   id="style2">
	.st0{fill:#FFFFFF;}
	.st1{fill-rule:evenodd;clip-rule:evenodd;fill:#EAD7B1;}
	.st2{clip-path:url(#SVGID_2_);}
	.st3{fill:url(#SVGID_3_);}
	.st4{clip-path:url(#SVGID_5_);}
	.st5{fill:url(#SVGID_6_);}
	.st6{clip-path:url(#SVGID_8_);}
	.st7{fill:url(#SVGID_9_);}
	.st8{clip-path:url(#SVGID_11_);}
	.st9{fill:url(#SVGID_12_);}
	.st10{fill-rule:evenodd;clip-rule:evenodd;fill:#FFFFFF;}
	.st11{fill:none;}
	.st12{clip-path:url(#SVGID_14_);}
	.st13{fill:url(#SVGID_15_);}
	.st14{fill-rule:evenodd;clip-rule:evenodd;fill:#CAA52E;}
	.st15{fill-rule:evenodd;clip-rule:evenodd;fill:#FACB13;}
	.st16{clip-path:url(#SVGID_17_);}
	.st17{fill:url(#SVGID_18_);}
	.st18{clip-path:url(#SVGID_20_);}
	.st19{fill:url(#SVGID_21_);}
	.st20{clip-path:url(#SVGID_23_);}
	.st21{fill:url(#SVGID_24_);}
	.st22{clip-path:url(#SVGID_26_);}
	.st23{fill:url(#SVGID_27_);}
	.st24{clip-path:url(#SVGID_29_);}
	.st25{fill:url(#SVGID_30_);}
	.st26{fill:#FACB13;}
	.st27{fill-rule:evenodd;clip-rule:evenodd;fill:#AB9276;}
	.st28{clip-path:url(#SVGID_32_);}
	.st29{fill:url(#SVGID_33_);}
	.st30{clip-path:url(#SVGID_35_);}
	.st31{fill:url(#SVGID_36_);}
	.st32{fill:#6E4E32;}
	.st33{fill:#405965;}
</style>
<path
   class="st0"
   d="m 167.8,24.8 c -19.1,0 -33.5,13.4 -33.5,31.2 0,17.8 14.6,31.3 33.3,31.3 11.2,0 20,-4.8 25.7,-11.6 v -1.4 l -11.1,-9.4 h -1.3 c -3.4,3.7 -8.1,5.8 -13.1,5.8 -8.1,0.4 -15,-5.9 -15.4,-14.1 -0.4,-8.1 5.9,-15 14.1,-15.4 0.4,0 0.9,0 1.3,0 5,0.1 9.7,2.2 13.1,5.8 h 1.3 l 11.1,-9.5 V 36.2 C 186.9,29 177.6,24.7 167.8,24.8"
   id="path4"
   style="fill:#ffffff;fill-opacity:1" />
<polygon
   class="st0"
   points="248.8,71 221,71 221,62.5 241.9,62.5 241.9,48.4 221,48.4 221,39.9 248.8,39.9 248.8,24.8 202.6,24.8 202.6,86.1 248.8,86.1 "
   id="polygon6"
   style="fill:#ffffff;fill-opacity:1" />
<polygon
   class="st0"
   points="445,10.7 438.6,0.2 437.3,0.2 415.9,13.3 415.9,14.6 419.5,21.1 420.8,21.1 445,12 "
   id="polygon8"
   style="fill:#ffffff;fill-opacity:1" />
<path
   class="st0"
   d="M 454.3,64.9 447,48.6 436.3,24.8 H 419.4 L 393.7,86.1 H 413 l 3.4,-9.2 h 22.9 c 1.5,2.9 3.5,5.4 5.9,7.6 2.7,2 6.1,3 9.5,2.8 3.1,0.1 6.1,-0.6 8.8,-2 L 455.3,67 c -0.3,-0.6 -0.6,-1.3 -1,-2.1 m -33.1,-0.2 6.8,-18.2 6.4,18.2 z"
   id="path10"
   style="fill:#ffffff;fill-opacity:1" />
<path
   class="st0"
   d="M 316.2,64.9 308.9,48.6 298.3,24.8 H 281.4 L 255.7,86.1 H 275 l 3.4,-9.2 h 22.9 c 1.5,2.9 3.5,5.4 5.9,7.6 2.7,2 6.1,3 9.5,2.8 3.1,0.1 6.1,-0.6 8.8,-2 L 317.2,67 c -0.4,-0.6 -0.7,-1.3 -1,-2.1 m -33.2,-0.2 6.8,-18.3 6.4,18.2 z"
   id="path12"
   style="fill:#ffffff;fill-opacity:1" />
<path
   class="st0"
   d="m 374.5,62.1 c 6.7,-3 11.1,-8.8 11.1,-16.8 0,-12.5 -8.5,-20.5 -24.4,-20.5 H 332.6 V 86.1 H 351 V 64.6 h 1.5 c 4.1,0 7.9,8.4 10.1,12.4 4.1,7.3 8.1,10.3 16.4,10.3 3.7,0 7.5,-1.2 9.4,-2.7 l 0.1,-0.2 -13.6,-21.9 c -0.2,-0.1 -0.3,-0.3 -0.4,-0.4 m -14,-9.7 H 351 V 39.9 h 9.5 c 3.4,-0.2 6.2,2.4 6.4,5.8 0,0.2 0,0.4 0,0.6 0,4 -3,6 -6.4,6.1"
   id="path14"
   style="fill:#ffffff;fill-opacity:1" />
<path
   class="st0"
   d="m 154,107.9 c 0,2.5 -1,5 -2.8,6.7 -1.9,1.8 -4.4,2.8 -7,2.8 -5.4,0 -9.8,-4.4 -9.8,-9.8 0,-5.4 4.4,-9.8 9.8,-9.8 3,0 5.9,1.3 7.8,3.6 v 0.3 l -2.8,2.3 h -0.4 c -1.1,-1.4 -2.8,-2.2 -4.6,-2.2 -3,0 -5.5,2.5 -5.4,5.5 0,0.1 0,0.1 0,0.2 -0.1,3.1 2.4,5.6 5.5,5.6 1.3,0 2.6,-0.4 3.7,-1.3 0.7,-0.7 1.2,-1.5 1.4,-2.5 h -5 V 106 h 9.2 l 0.4,0.3 c 0,0.7 0,1.1 0,1.6"
   id="path16"
   style="fill:#ffffff;fill-opacity:1" />
<path
   class="st0"
   d="m 157,107.7 c 0,-5.6 4.5,-9.8 10.3,-9.8 5.8,0 10.3,4.2 10.3,9.8 0,5.6 -4.5,9.8 -10.3,9.8 -5.8,0 -10.3,-4.2 -10.3,-9.8 m 16,0 c 0,-3.2 -2.5,-5.7 -5.7,-5.7 -3.2,0 -5.7,2.5 -5.7,5.7 0,3.2 2.5,5.7 5.7,5.7 0,0 0,0 0,0 3.1,0.1 5.6,-2.3 5.7,-5.4 0,-0.1 0,-0.2 0,-0.3"
   id="path18"
   style="fill:#ffffff;fill-opacity:1" />
<polygon
   class="st0"
   points="187.7,117.1 179.2,98.6 179.4,98.3 184,98.3 189,110.3 194.2,98.3 198.6,98.3 198.8,98.6 190.3,117.1 "
   id="polygon20"
   style="fill:#ffffff;fill-opacity:1" />
<polygon
   class="st0"
   points="213.9,105.9 213.9,109.4 206.8,109.4 206.8,113.4 216,113.4 216,117.1 202.2,117.1 202.2,98.3 216,98.3 216,102 206.8,102 206.8,105.9 "
   id="polygon22"
   style="fill:#ffffff;fill-opacity:1" />
<path
   class="st0"
   d="M 236.2,116.7 236,117 h -4.5 l -3.8,-7.1 h -2.6 v 7.1 h -4.5 V 98.3 h 8.1 c 4.8,0 7.3,2.3 7.3,6 0,2.4 -1.5,4.5 -3.7,5.2 z m -11.1,-9.8 h 3.7 c 1.3,0.1 2.5,-0.8 2.6,-2.1 0,-0.1 0,-0.2 0,-0.3 0,-1.4 -1,-2.5 -2.4,-2.5 -0.1,0 -0.2,0 -0.3,0 h -3.6 z"
   id="path24"
   style="fill:#ffffff;fill-opacity:1" />
<polygon
   class="st0"
   points="254.6,117.2 245,105.9 245,117.1 240.5,117.1 240.5,98.3 243.3,98.3 252.8,109.5 252.8,98.3 257.4,98.3 257.4,117.2 "
   id="polygon26"
   style="fill:#ffffff;fill-opacity:1" />
<path
   class="st0"
   d="m 261.7,107.7 c 0,-5.6 4.5,-9.8 10.3,-9.8 5.8,0 10.3,4.2 10.3,9.8 0,5.6 -4.5,9.8 -10.3,9.8 -5.8,0 -10.3,-4.3 -10.3,-9.8 m 16,0 c 0,-3.1 -2.5,-5.7 -5.7,-5.7 -3.1,0 -5.7,2.5 -5.7,5.7 0,3.2 2.5,5.7 5.7,5.7 0,0 0,0 0,0 3.1,0.1 5.6,-2.3 5.7,-5.4 0,-0.1 0,-0.2 0,-0.3"
   id="path28"
   style="fill:#ffffff;fill-opacity:1" />
<path
   class="st0"
   d="m 312.2,107.6 c 0,5.7 -3.8,9.4 -9.9,9.4 h -8.2 V 98.3 h 8.2 c 6.1,0 9.9,3.7 9.9,9.3 m -4.6,0 c 0,-3.6 -2.2,-5.7 -5.5,-5.7 h -3.6 v 11.4 h 3.6 c 3.3,0 5.5,-2.1 5.5,-5.7"
   id="path30"
   style="fill:#ffffff;fill-opacity:1" />
<path
   class="st0"
   d="m 315.4,107.7 c 0,-5.6 4.5,-9.8 10.3,-9.8 5.8,0 10.3,4.2 10.3,9.8 0,5.6 -4.5,9.8 -10.3,9.8 -5.8,0 -10.3,-4.2 -10.3,-9.8 m 16,0 c 0,-3.1 -2.5,-5.7 -5.6,-5.7 -3.1,0 -5.7,2.5 -5.7,5.6 0,3.1 2.5,5.7 5.6,5.7 0,0 0,0 0.1,0 3.1,0.1 5.6,-2.3 5.7,-5.4 -0.1,-0.1 -0.1,-0.2 -0.1,-0.2"
   id="path32"
   style="fill:#ffffff;fill-opacity:1" />
<polygon
   class="st0"
   points="359.4,105.9 359.4,109.4 352.3,109.4 352.3,113.4 361.6,113.4 361.6,117.1 347.8,117.1 347.8,98.3 361.5,98.3 361.5,102 352.3,102 352.3,105.9 "
   id="polygon34"
   style="fill:#ffffff;fill-opacity:1" />
<path
   class="st0"
   d="m 364.7,114 v -0.3 l 2.2,-2.6 h 0.3 c 1.3,1.5 3.2,2.4 5.2,2.5 1.9,0 3,-0.8 3,-1.9 0,-1.6 -1.8,-1.8 -4.1,-2.5 -2.6,-0.8 -5.7,-2.3 -5.7,-5.8 0,-3.3 2.9,-5.6 7.1,-5.6 2.6,-0.1 5.2,0.9 7.1,2.8 v 0.3 l -2.2,2.5 h -0.3 c -1.2,-1.2 -2.8,-2 -4.5,-2.1 -1.5,0 -2.5,0.6 -2.5,1.7 0,1.2 1.4,1.7 3,2.3 3.2,1 6.9,2 6.9,6.2 0,3.7 -3.3,5.7 -7.4,5.7 -3.1,0.3 -6,-0.9 -8.1,-3.2"
   id="path36"
   style="fill:#ffffff;fill-opacity:1" />
<polygon
   class="st0"
   points="388.3,102 382.4,102 382.4,98.3 398.8,98.3 398.8,102 392.8,102 392.8,117.1 388.3,117.1 "
   id="polygon38"
   style="fill:#ffffff;fill-opacity:1" />
<path
   class="st0"
   d="m 418.2,116.7 -0.2,0.4 h -4.6 l -1.4,-3.3 h -8 l -1.4,3.3 h -4.4 l -0.2,-0.4 8.7,-18.5 h 2.8 z m -7.4,-6.1 -2.6,-6.4 -2.7,6.4 z"
   id="path40"
   style="fill:#ffffff;fill-opacity:1" />
<path
   class="st0"
   d="m 439.7,107.6 c 0,5.7 -3.8,9.4 -9.9,9.4 h -8.2 V 98.3 h 8.2 c 6.1,0 9.9,3.7 9.9,9.3 m -4.6,0 c 0,-3.6 -2.2,-5.7 -5.4,-5.7 h -3.6 v 11.4 h 3.6 c 3.3,0 5.5,-2.1 5.4,-5.7"
   id="path42"
   style="fill:#ffffff;fill-opacity:1" />
<path
   class="st0"
   d="m 443,107.7 c 0,-5.6 4.5,-9.8 10.3,-9.8 5.8,0 10.3,4.2 10.3,9.8 0,5.6 -4.5,9.8 -10.3,9.8 -5.8,0 -10.3,-4.2 -10.3,-9.8 m 16,0 c 0,-3.2 -2.5,-5.7 -5.7,-5.7 -3.2,0 -5.7,2.5 -5.7,5.7 0,3.2 2.5,5.7 5.7,5.7 0,0 0,0 0,0 3.1,0.1 5.6,-2.3 5.7,-5.4 0,-0.1 0,-0.2 0,-0.3"
   id="path44"
   style="fill:#ffffff;fill-opacity:1" />
<path
   class="st0"
   d="m 99.4,60.7 c 0.7,-5.8 4.8,-9.8 9.6,-12.9 L 109.9,47.3 93.8,27 93.5,26.9 C 91.6,26.5 89.7,26.2 87.8,25.9 82,25.1 77.8,24.6 74.2,24.2 L 71.2,24 H 71.1 L 70.2,23.9 H 70 69.8 c -2.2,-0.1 -4.4,-0.2 -6.6,-0.3 v 0 H 62.4 61.8 C 53.7,23.4 46.6,23.7 41.5,24 39.7,24.1 28.4,25.2 26.2,25.5 H 25.9 C 23.3,25.9 18,26.7 16.1,27 L 0,47.3 0.9,47.8 c 4.8,3 8.9,7.1 9.6,12.9 0.7,5.8 -2.5,12.4 -4.7,17.6 -2.9,7 -5.6,13.9 -5.6,21.6 0,1.6 0.3,3.3 0.7,4.9 1.6,5.1 5.5,9.2 9.7,12.5 5,3.7 10.3,7 15.9,9.8 5.7,3 11.5,5.9 17,9.2 3.7,2.2 8.5,5.5 10.5,9.4 l 0.8,1.6 0.8,-1.6 c 2,-3.9 6.9,-7.1 10.5,-9.4 5.5,-3.3 11.3,-6.2 17,-9.2 5.6,-2.8 10.9,-6.1 15.9,-9.8 4.2,-3.3 8.1,-7.4 9.7,-12.5 0.5,-1.6 0.7,-3.2 0.7,-4.9 0,-7.7 -2.7,-14.6 -5.6,-21.6 -2,-5.2 -5.1,-11.8 -4.4,-17.6"
   id="path46" />
<polygon
   class="st1"
   points="77.7,2.4 74.4,3.9 77.7,4.4 "
   id="polygon48" />
<polygon
   class="st1"
   points="47.5,3 45.6,1.3 45.6,3.2 "
   id="polygon50" />
<polygon
   class="st1"
   points="64.1,1.2 62.3,3 64.1,3.1 "
   id="polygon52" />
<g
   id="g73">
	<defs
   id="defs55">
		<path
   id="SVGID_1_"
   d="m 51.3,0.3 c -0.2,0 -0.4,0.2 -0.4,0.4 0,0 0,0 0,0 v 2.6 c -2,0 -4,0.1 -6,0.2 V 0.9 c 0,-0.1 0,-0.2 -0.1,-0.3 C 44.7,0.5 44.6,0.5 44.5,0.5 42.3,0.6 40,0.8 37.7,1 37.5,1 37.4,1.2 37.4,1.4 V 4 c -2,0.2 -3.8,0.4 -5.8,0.7 V 2.2 C 31.6,2.1 31.6,2 31.5,1.9 31.4,1.8 31.3,1.8 31.2,1.8 29.7,2 28.2,2.4 26.7,2.7 25.8,2.9 25,3.1 24.1,3.2 c -0.2,0 -0.3,0.2 -0.3,0.4 v 2.7 c 0,0.1 0,0.1 0,0.2 l 1.1,2.1 c 0.1,0.1 0.2,0.2 0.3,0.2 0.1,0 0.1,0 0.2,0 9.4,-1.5 18.9,-2.3 28.4,-2.4 9.6,0 19,1.1 30.2,2.9 h 0.1 c 0.1,0 0.2,0 0.2,-0.1 C 84.4,9.1 84.4,9 84.4,8.9 V 8.6 l 0.9,-1.7 0.2,-0.4 c 0,-0.1 0,-0.1 0,-0.2 V 3.6 C 85.5,3.4 85.4,3.3 85.2,3.2 L 84.2,3 C 82.3,2.6 80.3,2.2 78.4,1.9 78.3,1.9 78.2,1.9 78.1,2 78,2 78,2.1 77.9,2.2 V 3.7 4.6 C 76.3,4.4 74.8,4.2 73.3,4.1 L 72.1,4 V 1.5 C 72.1,1.3 72,1.2 71.8,1.1 69.6,0.9 67.3,0.7 65,0.6 c -0.1,0 -0.2,0 -0.3,0.1 -0.1,0.1 -0.1,0.2 -0.1,0.3 v 2.5 c -2,-0.1 -4,-0.1 -6,-0.2 V 0.7 c 0,-0.2 -0.2,-0.4 -0.4,-0.4 0,0 0,0 0,0 h -2.9 c -1.3,0 -2.7,0 -4,0" />
	</defs>
	<clipPath
   id="SVGID_2_">
		<use
   xlink:href="#SVGID_1_"
   style="overflow:visible"
   id="use57"
   x="0"
   y="0"
   width="100%"
   height="100%" />
	</clipPath>
	<g
   class="st2"
   clip-path="url(#SVGID_2_)"
   id="g71">
		
			<linearGradient
   id="SVGID_3_"
   gradientUnits="userSpaceOnUse"
   x1="-279.0065"
   y1="-105.3494"
   x2="-276.10651"
   y2="-105.3494"
   gradientTransform="matrix(23.04,0,0,23.04,6449.6099,2432.0703)">
			<stop
   offset="0"
   style="stop-color:#D8B56D"
   id="stop60" />
			<stop
   offset="0.51"
   style="stop-color:#EDD9B1"
   id="stop62" />
			<stop
   offset="0.53"
   style="stop-color:#ECD8AF"
   id="stop64" />
			<stop
   offset="1"
   style="stop-color:#D8B56B"
   id="stop66" />
		</linearGradient>
		<rect
   x="23.799999"
   y="0.30000001"
   class="st3"
   width="61.900002"
   height="9"
   id="rect69"
   style="fill:url(#SVGID_3_)" />
	</g>
</g>
<g
   id="g92">
	<defs
   id="defs76">
		<path
   id="SVGID_4_"
   d="m 25,9.2 2.7,2.6 c 8.9,-1.4 17.8,-2.2 26.8,-2.3 9.2,0.2 18.5,0.9 27.6,2.3 l 1.8,-1.7 0.5,-0.9 C 75,7.4 65.4,6.6 55.8,6.6 45.4,6.7 35.2,7.6 25,9.2" />
	</defs>
	<clipPath
   id="SVGID_5_">
		<use
   xlink:href="#SVGID_4_"
   style="overflow:visible"
   id="use78"
   x="0"
   y="0"
   width="100%"
   height="100%" />
	</clipPath>
	<g
   class="st4"
   clip-path="url(#SVGID_5_)"
   id="g90">
		
			<linearGradient
   id="SVGID_6_"
   gradientUnits="userSpaceOnUse"
   x1="-279.81799"
   y1="-102.8531"
   x2="-276.90799"
   y2="-102.8531"
   gradientTransform="matrix(20.71,0,0,20.71,5820.0298,2139.3528)">
			<stop
   offset="0"
   style="stop-color:#B79644"
   id="stop81" />
			<stop
   offset="0.51"
   style="stop-color:#C7A865"
   id="stop83" />
			<stop
   offset="1"
   style="stop-color:#B89642"
   id="stop85" />
		</linearGradient>
		<rect
   x="25"
   y="6.6999998"
   class="st5"
   width="59.400002"
   height="5.1999998"
   id="rect88"
   style="fill:url(#SVGID_6_)" />
	</g>
</g>
<g
   id="g111">
	<defs
   id="defs95">
		<path
   id="SVGID_7_"
   d="m 29.9,11.7 -6.2,14.7 c 0,0 15.4,-1.8 32,-2.2 10.3,-0.2 20.4,0.6 30.5,2.3 -0.1,-0.1 -6.5,-14.9 -6.5,-14.9 0,0 -11,-1.4 -24.1,-1.7 -0.9,0 -1.9,0 -2.8,0 -7.6,0.1 -15.2,0.7 -22.9,1.8" />
	</defs>
	<clipPath
   id="SVGID_8_">
		<use
   xlink:href="#SVGID_7_"
   style="overflow:visible"
   id="use97"
   x="0"
   y="0"
   width="100%"
   height="100%" />
	</clipPath>
	<g
   class="st6"
   clip-path="url(#SVGID_8_)"
   id="g109">
		
			<linearGradient
   id="SVGID_9_"
   gradientUnits="userSpaceOnUse"
   x1="-279.41461"
   y1="-103.7696"
   x2="-276.50461"
   y2="-103.7696"
   gradientTransform="matrix(21.8,0,0,21.8,6114.6602,2280.373)">
			<stop
   offset="0"
   style="stop-color:#DBB872"
   id="stop100" />
			<stop
   offset="0.51"
   style="stop-color:#E0C28B"
   id="stop102" />
			<stop
   offset="1"
   style="stop-color:#DBB872"
   id="stop104" />
		</linearGradient>
		<rect
   x="23.799999"
   y="9.8999996"
   class="st7"
   width="62.400002"
   height="16.700001"
   id="rect107"
   style="fill:url(#SVGID_9_)" />
	</g>
</g>
<path
   class="st1"
   d="m 59.1,24 -9.3,0.1 c 0.1,-1.8 0.2,-3.5 0.6,-5.2 0.4,-1.3 1.2,-2.5 2.3,-3.3 1,-0.7 2.2,-0.8 3.4,-0.5 1.1,0.4 2.1,1.2 2.6,2.2 0.7,1.2 1.1,2.5 1.2,3.8 0.1,1 0.1,2 0,3 z"
   id="path113" />
<path
   class="st1"
   d="m 68.7,12.5 c -1.5,0.1 -2.8,1 -2.7,2.2 0.1,1.2 0.8,6.8 0.8,6.8 l 6,0.4 -1.1,-7.7 c 0,0 -1.5,-1.8 -3,-1.7"
   id="path115" />
<g
   id="g134">
	<defs
   id="defs118">
		<path
   id="SVGID_10_"
   d="M 18.7,31.8 7.3,46 c 4.3,3.6 7.5,8.1 8.2,14 0.8,7 -2.3,14 -4.9,20.3 C 8,86.6 5.3,93.1 5.3,100 c 0,1.1 0.2,2.2 0.5,3.3 2.6,8.4 15.7,15.3 23,19.2 5.8,3.1 11.8,6 17.4,9.4 3.1,1.7 6,3.8 8.6,6.1 2.5,-2.3 5.3,-4.4 8.3,-6.1 5.6,-3.4 11.6,-6.3 17.4,-9.4 7.8,-4.1 23.6,-12.2 23.6,-22.5 0,-6.9 -2.6,-13.3 -5.2,-19.6 C 96.3,74.1 93.2,67 93.9,60 94.6,54.1 97.8,49.8 102.1,46.2 L 90.7,31.8 c -11.5,-2 -23.1,-3 -34.8,-3 -12.4,0 -24.9,1 -37.2,3" />
	</defs>
	<clipPath
   id="SVGID_11_">
		<use
   xlink:href="#SVGID_10_"
   style="overflow:visible"
   id="use120"
   x="0"
   y="0"
   width="100%"
   height="100%" />
	</clipPath>
	<g
   class="st8"
   clip-path="url(#SVGID_11_)"
   id="g132">
		
			<radialGradient
   id="SVGID_12_"
   cx="-279.38321"
   cy="-98.167503"
   r="2.9000001"
   gradientTransform="matrix(19.38,0,0,19.11,5469.6196,1960.8335)"
   gradientUnits="userSpaceOnUse">
			<stop
   offset="0"
   style="stop-color:#01A668"
   id="stop123" />
			<stop
   offset="0.39"
   style="stop-color:#029D5F"
   id="stop125" />
			<stop
   offset="1"
   style="stop-color:#038647"
   id="stop127" />
		</radialGradient>
		<rect
   x="5.3000002"
   y="28.700001"
   class="st9"
   width="98.699997"
   height="109.3"
   id="rect130"
   style="fill:url(#SVGID_12_)" />
	</g>
</g>
<polygon
   class="st10"
   points="16.8,53.9 19.3,55.8 18.3,58.8 20.8,56.9 23.2,58.8 22.3,55.8 24.8,53.9 21.7,53.9 20.8,50.9 19.8,53.9 "
   id="polygon136" />
<polygon
   class="st11"
   points="16.8,53.9 19.3,55.8 18.3,58.8 20.8,56.9 23.2,58.8 22.3,55.8 24.8,53.9 21.7,53.9 20.8,50.9 19.8,53.9 "
   id="polygon138" />
<polygon
   class="st10"
   points="14.2,74.3 16.7,76.2 15.8,79.2 18.2,77.3 20.7,79.2 19.7,76.2 22.2,74.3 19.1,74.3 18.2,71.3 17.3,74.3 "
   id="polygon140" />
<polygon
   class="st11"
   points="14.2,74.3 16.7,76.2 15.8,79.2 18.2,77.3 20.7,79.2 19.7,76.2 22.2,74.3 19.1,74.3 18.2,71.3 17.3,74.3 "
   id="polygon142" />
<polygon
   class="st10"
   points="10.9,92.6 13.4,94.5 12.4,97.5 14.9,95.6 17.4,97.5 16.4,94.5 18.9,92.6 15.8,92.6 14.9,89.6 14,92.6 "
   id="polygon144" />
<polygon
   class="st11"
   points="10.9,92.6 13.4,94.5 12.4,97.5 14.9,95.6 17.4,97.5 16.4,94.5 18.9,92.6 15.8,92.6 14.9,89.6 14,92.6 "
   id="polygon146" />
<polygon
   class="st10"
   points="50.5,124.4 53,126.3 52.1,129.3 54.5,127.4 57,129.3 56,126.3 58.5,124.4 55.5,124.5 54.5,121.5 53.6,124.5 "
   id="polygon148" />
<polygon
   class="st11"
   points="50.5,124.4 53,126.3 52.1,129.3 54.5,127.4 57,129.3 56,126.3 58.5,124.4 55.5,124.5 54.5,121.5 53.6,124.5 "
   id="polygon150" />
<polygon
   class="st10"
   points="68.9,117 71.4,118.9 70.4,121.9 72.9,120 75.3,121.9 74.4,118.9 76.8,117 73.8,117 72.9,114 71.9,117 "
   id="polygon152" />
<polygon
   class="st11"
   points="68.9,117 71.4,118.9 70.4,121.9 72.9,120 75.3,121.9 74.4,118.9 76.8,117 73.8,117 72.9,114 71.9,117 "
   id="polygon154" />
<polygon
   class="st10"
   points="40,117 37.5,118.9 38.5,121.9 36,120 33.5,121.9 34.5,118.9 32,117 35,117 36,114 36.9,117 "
   id="polygon156" />
<polygon
   class="st11"
   points="40,117 37.5,118.9 38.5,121.9 36,120 33.5,121.9 34.5,118.9 32,117 35,117 36,114 36.9,117 "
   id="polygon158" />
<polygon
   class="st10"
   points="25.4,107.3 22.9,109.1 23.9,112.1 21.4,110.3 18.9,112.1 19.9,109.1 17.4,107.3 20.5,107.3 21.4,104.3 22.3,107.3 "
   id="polygon160" />
<polygon
   class="st11"
   points="25.4,107.3 22.9,109.1 23.9,112.1 21.4,110.3 18.9,112.1 19.9,109.1 17.4,107.3 20.5,107.3 21.4,104.3 22.3,107.3 "
   id="polygon162" />
<g
   id="g187">
	<defs
   id="defs165">
		<path
   id="SVGID_13_"
   d="M 24.9,78.7 H 84.6 C 85,59.7 75,40.1 54.7,40.1 34.4,40.1 24.4,59.7 24.9,78.7" />
	</defs>
	<clipPath
   id="SVGID_14_">
		<use
   xlink:href="#SVGID_13_"
   style="overflow:visible"
   id="use167"
   x="0"
   y="0"
   width="100%"
   height="100%" />
	</clipPath>
	<g
   class="st12"
   clip-path="url(#SVGID_14_)"
   id="g185">
		
			<radialGradient
   id="SVGID_15_"
   cx="-283.11499"
   cy="-87.455803"
   r="2.9000001"
   gradientTransform="matrix(13.99,0,0,13.79,4004.77,1279.9601)"
   gradientUnits="userSpaceOnUse">
			<stop
   offset="0"
   style="stop-color:#E0F0E0"
   id="stop170" />
			<stop
   offset="0.14"
   style="stop-color:#D7EDE1"
   id="stop172" />
			<stop
   offset="0.37"
   style="stop-color:#BEE5E3"
   id="stop174" />
			<stop
   offset="0.65"
   style="stop-color:#96D7E7"
   id="stop176" />
			<stop
   offset="0.99"
   style="stop-color:#5EC5ED"
   id="stop178" />
			<stop
   offset="1"
   style="stop-color:#5CC4ED"
   id="stop180" />
		</radialGradient>
		<rect
   x="24.4"
   y="40.099998"
   class="st13"
   width="60.599998"
   height="38.599998"
   id="rect183"
   style="fill:url(#SVGID_15_)" />
	</g>
</g>
<path
   class="st14"
   d="m 24.9,76.8 h 16.8 v 0.7 H 24.8 v -0.1 0 l 0.1,-0.6"
   id="path189" />
<path
   class="st11"
   d="m 24.9,76.8 h 16.8 v 0.7 H 24.8 v -0.1 0 z"
   id="path191" />
<path
   class="st14"
   d="M 25,73.5 41.7,76.8 41.5,77.5 25,74.2 c 0,-0.2 0,-0.5 0,-0.7"
   id="path193" />
<path
   class="st11"
   d="M 25,73.5 41.7,76.8 41.5,77.5 25,74.2 c 0,-0.2 0,-0.5 0,-0.7 z"
   id="path195" />
<path
   class="st14"
   d="m 25.4,70.1 16.4,6.7 -0.3,0.7 -16.2,-6.6 c 0,-0.3 0,-0.6 0.1,-0.8"
   id="path197" />
<path
   class="st11"
   d="m 25.4,70.1 16.4,6.7 -0.3,0.7 -16.2,-6.6 c 0,-0.3 0,-0.6 0.1,-0.8 z"
   id="path199" />
<path
   class="st14"
   d="M 26,66.4 41.8,76.8 41.4,77.4 25.9,67.2 c 0,-0.3 0.1,-0.5 0.1,-0.8"
   id="path201" />
<path
   class="st11"
   d="M 26,66.4 41.8,76.8 41.4,77.4 25.9,67.2 c 0,-0.3 0.1,-0.5 0.1,-0.8 z"
   id="path203" />
<path
   class="st14"
   d="M 27.1,62.4 41.9,76.9 41.4,77.4 26.9,63.2 27.1,62.4"
   id="path205" />
<path
   class="st11"
   d="M 27.1,62.4 41.9,76.9 41.4,77.4 26.9,63.2 Z"
   id="path207" />
<path
   class="st14"
   d="M 28.9,57.8 42,77 41.4,77.4 28.5,58.6 28.9,57.8"
   id="path209" />
<path
   class="st11"
   d="M 28.9,57.8 42,77 41.4,77.4 28.5,58.6 Z"
   id="path211" />
<path
   class="st14"
   d="M 31.7,52.7 42,77 41.3,77.3 31.2,53.4 c 0.2,-0.2 0.3,-0.4 0.5,-0.7"
   id="path213" />
<path
   class="st11"
   d="M 31.7,52.7 42,77 41.3,77.3 31.2,53.4 c 0.2,-0.2 0.3,-0.5 0.5,-0.7 z"
   id="path215" />
<path
   class="st14"
   d="m 35.9,47.6 6.1,29.5 -0.7,0.1 -6,-29.1 c 0.2,-0.1 0.4,-0.3 0.6,-0.5"
   id="path217" />
<path
   class="st11"
   d="m 35.9,47.6 6.1,29.5 -0.7,0.1 -6,-29.1 c 0.2,-0.1 0.4,-0.3 0.6,-0.5 z"
   id="path219" />
<path
   class="st14"
   d="m 41.9,43.2 0.1,34 h -0.7 l -0.1,-33.6 0.7,-0.4"
   id="path221" />
<path
   class="st11"
   d="m 41.9,43.2 0.1,34 H 41.3 L 41.2,43.6 Z"
   id="path223" />
<path
   class="st14"
   d="M 49.2,40.6 42,77.3 41.3,77.2 48.5,40.8 49.2,40.6"
   id="path225" />
<path
   class="st11"
   d="M 49.2,40.6 42,77.3 41.3,77.2 48.5,40.8 Z"
   id="path227" />
<path
   class="st14"
   d="M 57.3,40.2 42,77.4 41.3,77.1 56.6,40.2 h 0.7"
   id="path229" />
<path
   class="st11"
   d="M 57.3,40.2 42,77.4 41.3,77.1 56.6,40.2 Z"
   id="path231" />
<path
   class="st14"
   d="M 65.5,42.2 41.9,77.4 41.3,77 64.8,42 l 0.7,0.2"
   id="path233" />
<path
   class="st11"
   d="M 65.5,42.2 41.9,77.4 41.3,77 64.8,42 Z"
   id="path235" />
<path
   class="st14"
   d="M 72.6,46.8 41.8,77.5 41.3,77 72.1,46.3 c 0.2,0.2 0.3,0.3 0.5,0.5"
   id="path237" />
<path
   class="st11"
   d="M 72.6,46.8 41.8,77.5 41.3,77 72.1,46.3 c 0.2,0.2 0.3,0.3 0.5,0.5 z"
   id="path239" />
<path
   class="st14"
   d="M 78.1,53.3 41.8,77.5 41.4,76.9 77.8,52.6 c 0.1,0.3 0.2,0.5 0.3,0.7"
   id="path241" />
<path
   class="st11"
   d="M 78.1,53.3 41.8,77.5 41.4,76.9 77.8,52.6 c 0,0.3 0.1,0.5 0.3,0.7 z"
   id="path243" />
<path
   class="st14"
   d="m 81.7,60.9 -40,16.7 -0.3,-0.7 40.1,-16.7 c 0.1,0.2 0.2,0.5 0.2,0.7"
   id="path245" />
<path
   class="st11"
   d="m 81.7,60.9 -40,16.7 -0.3,-0.7 40.1,-16.7 c 0.1,0.2 0.2,0.5 0.2,0.7 z"
   id="path247" />
<path
   class="st14"
   d="M 83.9,69 41.7,77.6 41.5,76.9 83.8,68.3 83.9,69"
   id="path249" />
<path
   class="st11"
   d="M 83.9,69 41.7,77.6 41.5,76.9 83.8,68.3 Z"
   id="path251" />
<path
   class="st14"
   d="m 84.5,77.2 -43,0.3 v -0.7 l 43,-0.3 c 0,0.3 0,0.5 0,0.7"
   id="path253" />
<path
   class="st11"
   d="m 84.5,77.2 -43,0.3 v -0.7 l 43,-0.3 c 0,0.3 0,0.5 0,0.7 z"
   id="path255" />
<path
   class="st14"
   d="m 41.6,66.4 c 6,0 11,4.8 11,10.8 h -22 c 0.1,-6 5,-10.8 11,-10.8"
   id="path257" />
<path
   class="st15"
   d="m 41.6,67.3 c 5.5,-0.1 10,4.2 10.1,9.7 H 31.5 c 0.2,-5.5 4.7,-9.8 10.1,-9.7 0,0 0,0 0,0"
   id="path259" />
<g
   id="g282">
	<defs
   id="defs262">
		<path
   id="SVGID_16_"
   d="m 24.8,77.5 c 0,1.4 0.1,2.8 0.2,4.2 6.9,0.2 15.8,-0.2 16,1.1 0,0.2 0.4,0.1 0.7,0 0.3,-0.1 0.6,-0.2 0.4,0 -3.2,3.5 0.8,9.6 4.7,12.7 12.4,9.6 7.9,15.1 -2.2,17.2 3.2,1.2 6.6,1.8 10,1.7 11.5,0 19.6,-6.2 24.5,-14.9 -7.4,-3 -20,-4.5 -23,-11.1 -1,-2.2 5,-6.3 5.9,-8.1 1.8,-3.4 -9.9,-2.7 -9.5,-2.9 L 25,77.3 c 0.2,0 0.1,0.1 -0.2,0.2" />
	</defs>
	<clipPath
   id="SVGID_17_">
		<use
   xlink:href="#SVGID_16_"
   style="overflow:visible"
   id="use264"
   x="0"
   y="0"
   width="100%"
   height="100%" />
	</clipPath>
	<g
   class="st16"
   clip-path="url(#SVGID_17_)"
   id="g280">
		
			<linearGradient
   id="SVGID_18_"
   gradientUnits="userSpaceOnUse"
   x1="-280.16199"
   y1="-99.184097"
   x2="-277.26199"
   y2="-99.184097"
   gradientTransform="matrix(20.09,0,0,20.09,5650.1099,2088.3232)">
			<stop
   offset="0"
   style="stop-color:#FFFFFF"
   id="stop267" />
			<stop
   offset="0.18"
   style="stop-color:#FFFBF6"
   id="stop269" />
			<stop
   offset="0.48"
   style="stop-color:#FEEFDD"
   id="stop271" />
			<stop
   offset="0.86"
   style="stop-color:#FCDBB5"
   id="stop273" />
			<stop
   offset="1"
   style="stop-color:#FBD3A4"
   id="stop275" />
		</linearGradient>
		<rect
   x="24.9"
   y="76.900002"
   class="st17"
   width="54.299999"
   height="37.5"
   id="rect278"
   style="fill:url(#SVGID_18_)" />
	</g>
</g>
<g
   id="g305">
	<defs
   id="defs285">
		<path
   id="SVGID_19_"
   d="m 24.8,77.3 v -0.2 c -1.5,8.2 2,20.9 9.4,28.8 6.1,6.5 14.7,9.3 18.2,8.8 0.2,0 0.5,0 0.7,0 0.4,0 0.7,0.1 0.8,-0.2 7.7,-14.4 -20.2,-30.6 -0.4,-37 1.4,-0.4 -1.1,-0.6 -5.2,-0.6 -6.8,0 -18.1,0.4 -23.5,0.4" />
	</defs>
	<clipPath
   id="SVGID_20_">
		<use
   xlink:href="#SVGID_19_"
   style="overflow:visible"
   id="use287"
   x="0"
   y="0"
   width="100%"
   height="100%" />
	</clipPath>
	<g
   class="st18"
   clip-path="url(#SVGID_20_)"
   id="g303">
		
			<linearGradient
   id="SVGID_21_"
   gradientUnits="userSpaceOnUse"
   x1="-284.55151"
   y1="-85.446297"
   x2="-281.64151"
   y2="-85.446297"
   gradientTransform="matrix(13.52,0,0,13.52,3870.5601,1251.274)">
			<stop
   offset="0"
   style="stop-color:#00AEB4"
   id="stop290" />
			<stop
   offset="0.18"
   style="stop-color:#09B0B6"
   id="stop292" />
			<stop
   offset="0.47"
   style="stop-color:#22B5BA"
   id="stop294" />
			<stop
   offset="0.84"
   style="stop-color:#4ABEC2"
   id="stop296" />
			<stop
   offset="1"
   style="stop-color:#5EC2C6"
   id="stop298" />
		</linearGradient>
		<rect
   x="23.299999"
   y="76.900002"
   class="st19"
   width="38.400002"
   height="38.299999"
   id="rect301"
   style="fill:url(#SVGID_21_)" />
	</g>
</g>
<g
   id="g326">
	<defs
   id="defs308">
		<path
   id="SVGID_22_"
   d="m 80.9,60.1 c -7,0.1 -6.4,8.3 -11.3,8.8 -1.2,0.1 -4,-0.8 -6,-1.2 -2.7,-0.4 -8,6 -9.2,9.4 h 30.1 c 0,-5.8 -1,-11.6 -3.1,-17.1 -0.1,0.1 -0.3,0.1 -0.5,0.1 z" />
	</defs>
	<clipPath
   id="SVGID_23_">
		<use
   xlink:href="#SVGID_22_"
   style="overflow:visible"
   id="use310"
   x="0"
   y="0"
   width="100%"
   height="100%" />
	</clipPath>
	<g
   class="st20"
   clip-path="url(#SVGID_23_)"
   id="g324">
		
			<linearGradient
   id="SVGID_24_"
   gradientUnits="userSpaceOnUse"
   x1="-184.77969"
   y1="-103.0349"
   x2="-181.8797"
   y2="-103.0349"
   gradientTransform="matrix(0,6.28,-6.28,0,-577.5793,1219.4301)">
			<stop
   offset="0"
   style="stop-color:#19A576"
   id="stop313" />
			<stop
   offset="0.33"
   style="stop-color:#149D6D"
   id="stop315" />
			<stop
   offset="0.87"
   style="stop-color:#068654"
   id="stop317" />
			<stop
   offset="1"
   style="stop-color:#027F4D"
   id="stop319" />
		</linearGradient>
		<rect
   x="54.400002"
   y="60.099998"
   class="st21"
   width="30.1"
   height="17.1"
   id="rect322"
   style="fill:url(#SVGID_24_)" />
	</g>
</g>
<path
   class="st10"
   d="m 37.2,98.6 c -4,-8.1 -1.9,-13 3.6,-16.1 -2.5,4.4 1.2,8.2 6.4,12.3 -3.5,0.6 -6.9,1.8 -9.9,3.7 z"
   id="path328" />
<g
   id="g349">
	<defs
   id="defs331">
		<path
   id="SVGID_25_"
   d="m 56.5,93.9 c 4.9,5.1 13.9,5.8 20.5,9.2 5,-6.8 7.5,-16 7.6,-25.1 v -0.3 l -30,-0.3 c -2.8,4.2 -4.3,10 1.9,16.5" />
	</defs>
	<clipPath
   id="SVGID_26_">
		<use
   xlink:href="#SVGID_25_"
   style="overflow:visible"
   id="use333"
   x="0"
   y="0"
   width="100%"
   height="100%" />
	</clipPath>
	<g
   class="st22"
   clip-path="url(#SVGID_26_)"
   id="g347">
		
			<linearGradient
   id="SVGID_27_"
   gradientUnits="userSpaceOnUse"
   x1="-284.57999"
   y1="-81.374199"
   x2="-281.67001"
   y2="-81.374199"
   gradientTransform="matrix(12.25,0,0,12.25,3534.8401,1087.0242)">
			<stop
   offset="0"
   style="stop-color:#E9B68B"
   id="stop336" />
			<stop
   offset="0.3"
   style="stop-color:#E4AF82"
   id="stop338" />
			<stop
   offset="0.8"
   style="stop-color:#D69C69"
   id="stop340" />
			<stop
   offset="1"
   style="stop-color:#CF935D"
   id="stop342" />
		</linearGradient>
		<rect
   x="50.299999"
   y="77.300003"
   class="st23"
   width="34.200001"
   height="25.799999"
   id="rect345"
   style="fill:url(#SVGID_27_)" />
	</g>
</g>
<g
   id="g370">
	<defs
   id="defs352">
		<path
   id="SVGID_28_"
   d="m 77.9,69.2 c -2.5,0.3 -4.3,4.4 -9.2,7.5 h 15.9 c 0,-2.2 -0.2,-4.4 -0.5,-6.5 -1.5,-0.2 -3.9,-0.8 -5.6,-1 z" />
	</defs>
	<clipPath
   id="SVGID_29_">
		<use
   xlink:href="#SVGID_28_"
   style="overflow:visible"
   id="use354"
   x="0"
   y="0"
   width="100%"
   height="100%" />
	</clipPath>
	<g
   class="st24"
   clip-path="url(#SVGID_29_)"
   id="g368">
		
			<linearGradient
   id="SVGID_30_"
   gradientUnits="userSpaceOnUse"
   x1="-76.096397"
   y1="-75.126602"
   x2="-73.186401"
   y2="-75.126602"
   gradientTransform="matrix(0,2.81,-2.81,0,-134.5157,283.23)">
			<stop
   offset="0"
   style="stop-color:#19A576"
   id="stop357" />
			<stop
   offset="0.33"
   style="stop-color:#149D6D"
   id="stop359" />
			<stop
   offset="0.87"
   style="stop-color:#068654"
   id="stop361" />
			<stop
   offset="1"
   style="stop-color:#027F4D"
   id="stop363" />
		</linearGradient>
		<rect
   x="68.699997"
   y="69.199997"
   class="st25"
   width="15.9"
   height="7.5"
   id="rect366"
   style="fill:url(#SVGID_30_)" />
	</g>
</g>
<rect
   x="39.5"
   y="57.200001"
   class="st26"
   width="4"
   height="2.0999999"
   id="rect372" />
<rect
   x="39.5"
   y="57.200001"
   class="st11"
   width="4"
   height="2.0999999"
   id="rect374" />
<path
   class="st10"
   d="m 56,52.7 c 2.6,-0.2 5.2,0.1 7.6,0.9 1.9,0.7 2.6,0.7 4.4,2.3 l -2.6,1.7 c -2.7,-3 -6,-3.5 -9.4,-4.5 -1.5,-0.5 -1.5,-0.4 0,-0.4"
   id="path376" />
<path
   class="st10"
   d="m 66.8,55.8 c 2.1,0.2 4.6,-1.5 5.6,-1.7 0.4,-0.1 1,0.6 0.7,0.8 -0.5,0.3 -1.1,0.6 -1.7,0.8 0.6,-0.3 1.2,-0.6 1.9,-0.8 0.5,0.1 0.8,0.9 0.6,1.1 0,0 -1.7,0.4 -2.2,0.7 0.7,-0.3 1.4,-0.5 2.2,-0.7 0.3,0 0.6,0.9 0.2,1.1 -1.2,0.8 -2.7,0.8 -3.9,1.3 0.5,1.8 1.7,4 1.6,5.9 -0.1,3 -1.7,5.8 -2.2,8.6 C 69.4,74 69.5,74.3 69.3,73 68.7,69.4 68.4,62.9 66.7,60.5 66.1,60 65.4,59.7 64.6,59.4 c -0.7,-0.2 -1.3,-0.3 -2,-0.3 -0.5,0.1 -1.6,0.4 -2.1,0.5 0.2,-0.9 0.8,-3.3 2.5,-3.1 z"
   id="path378" />
<path
   class="st27"
   d="m 67.6,87.6 -0.1,1 1.3,0.9 v -1.1 z m -0.5,17 v 1 l 0.1,0.1 h 1.3 z m 0,-1.9 v 1 l 2.2,1.7 v -1 z m 0.1,-1.9 v 1 l 2.2,1.6 v -1 z m 0,-1.9 -0.1,1 2,1.5 v -1.1 z M 67.3,97 v 1 l 1.9,1.4 v -1 z m 0.1,-1.9 v 1 l 1.8,1.3 v -1.1 z m 0,-1.9 v 1 l 1.6,1.2 v -1.1 z m 0.1,-1.9 -0.1,1 1.5,1.1 v -1.1 z m 0.1,-1.9 -0.1,1 1.4,1 -0.1,-1.1 z"
   id="path380" />
<path
   class="st11"
   d="m 66.9,104.8 v 1 l 0.1,0.1 h 1.3 z m 0.1,-1.9 v 0.9 l 2.2,1.7 v -1 z m 0.1,-1.9 v 1 l 2.1,1.6 v -1 z"
   id="path382" />
<g
   id="g403">
	<defs
   id="defs385">
		<polygon
   id="SVGID_31_"
   points="46.1,76.8 46,63.5 37.2,63.5 37.2,76.8 " />
	</defs>
	<clipPath
   id="SVGID_32_">
		<use
   xlink:href="#SVGID_31_"
   style="overflow:visible"
   id="use387"
   x="0"
   y="0"
   width="100%"
   height="100%" />
	</clipPath>
	<g
   class="st28"
   clip-path="url(#SVGID_32_)"
   id="g401">
		
			<linearGradient
   id="SVGID_33_"
   gradientUnits="userSpaceOnUse"
   x1="-328.24319"
   y1="52.522301"
   x2="-325.3353"
   y2="52.522301"
   gradientTransform="matrix(3.04,0,0,3.04,1036.1,-89.5578)">
			<stop
   offset="0"
   style="stop-color:#DBDAD9"
   id="stop390" />
			<stop
   offset="0.35"
   style="stop-color:#E2E2E2"
   id="stop392" />
			<stop
   offset="0.92"
   style="stop-color:#F7F9FB"
   id="stop394" />
			<stop
   offset="1"
   style="stop-color:#FAFDFF"
   id="stop396" />
		</linearGradient>
		<rect
   x="37.200001"
   y="63.5"
   class="st29"
   width="8.8000002"
   height="13.3"
   id="rect399"
   style="fill:url(#SVGID_33_)" />
	</g>
</g>
<g
   id="g424">
	<defs
   id="defs406">
		<path
   id="SVGID_34_"
   d="m 41.6,53.6 c -0.5,0 -0.8,0.7 -1.2,1.2 -0.3,0.3 -0.5,0.6 -0.8,0.9 v 5.4 l 0.2,0.3 -0.1,1.9 h 3.8 l -0.1,-2 0.8,-0.2 -0.1,-1.9 -0.1,-3.1 c -0.5,-0.5 -0.9,-1 -1.3,-1.5 -0.5,-0.5 -0.3,-1.1 -1.1,-1 z" />
	</defs>
	<clipPath
   id="SVGID_35_">
		<use
   xlink:href="#SVGID_34_"
   style="overflow:visible"
   id="use408"
   x="0"
   y="0"
   width="100%"
   height="100%" />
	</clipPath>
	<g
   class="st30"
   clip-path="url(#SVGID_35_)"
   id="g422">
		
			<linearGradient
   id="SVGID_36_"
   gradientUnits="userSpaceOnUse"
   x1="-382.4642"
   y1="221.58521"
   x2="-379.56421"
   y2="221.58521"
   gradientTransform="matrix(1.55,0,0,1.55,632.51,-285.0471)">
			<stop
   offset="0"
   style="stop-color:#DBDAD9"
   id="stop411" />
			<stop
   offset="0.35"
   style="stop-color:#E2E2E2"
   id="stop413" />
			<stop
   offset="0.92"
   style="stop-color:#F7F9FB"
   id="stop415" />
			<stop
   offset="1"
   style="stop-color:#FAFDFF"
   id="stop417" />
		</linearGradient>
		<rect
   x="39.5"
   y="53.5"
   class="st31"
   width="4.5"
   height="9.6999998"
   id="rect420"
   style="fill:url(#SVGID_36_)" />
	</g>
</g>
<rect
   x="39.700001"
   y="57.299999"
   class="st26"
   width="3.5999999"
   height="1.7"
   id="rect426" />
<path
   class="st1"
   d="m 40.5,12.4 c 1.5,0.1 2.8,1 2.7,2.2 -0.1,1.2 -0.8,6.8 -0.8,6.8 l -6,0.4 1.1,-7.7 c 0,0.1 1.5,-1.7 3,-1.7"
   id="path428" />
<path
   class="st32"
   d="m 39,14.9 c -0.2,2.1 -0.5,3.4 -0.6,5.5 1,-0.1 1.8,-0.1 2.6,-0.2 0.2,-2 0.5,-3.5 0.7,-5.5 -0.5,-1.1 -1.9,-1 -2.7,0.2"
   id="path430" />
<path
   class="st32"
   d="m 70.9,20.4 c -0.2,-2 -0.4,-3.5 -0.6,-5.5 -0.8,-1.2 -2.2,-1.4 -2.7,-0.2 0.2,2 0.4,3.5 0.7,5.5 0.8,0.1 1.5,0.2 2.6,0.2"
   id="path432" />
<path
   class="st32"
   d="M 58.6,23.8 V 23 c -0.2,-2.6 -0.4,-6.8 -3.7,-6.8 -3.3,0 -3.4,4.3 -3.6,6.9 v 0.6 z"
   id="path434" />
<path
   class="st32"
   d="m 54.9,15.2 c 4.3,0 4.4,5.1 4.7,8.3 v 0.2 0.1 h 0.8 v -0.2 0 c -0.1,-0.9 -0.2,-1.8 -0.3,-2.7 h 2 l 0.3,2.7 v 0 l 0.1,0.2 h 0.8 v -0.2 0 l -0.3,-2.7 3.5,0.1 0.1,1.1 1.6,0.1 c 0.9,0.1 1.8,0.1 2.6,0.2 l 2.4,0.2 -0.1,-1.2 c 1.5,0.1 3,0.2 4.5,0.4 l 0.7,2.9 0.1,0.5 h 0.8 l -0.1,-0.7 -0.6,-2.5 5.5,0.7 1.2,2.7 0.1,0.3 v 0 l 0.1,0.2 1,0.1 v -0.2 0 l -6,-13.7 2.1,0.3 2.2,-1.9 L 86.3,7 C 86.5,5.7 86.5,4.3 86.4,3 85.2,2.8 78.3,1.4 77.7,1.4 L 72.6,3.7 V 0.8 L 64,0.1 v 0 L 61,2.9 H 59.1 V 0 H 50.5 V 2.9 L 48.7,3 45.7,0.2 37,0.9 V 3.7 L 32.1,1.5 C 31.5,1.4 24.7,2.8 23.5,3 c 0,0.8 -0.2,3.4 0.1,4 2,4.1 0.5,2.6 4.1,5.2 L 29.4,12 23.5,25.8 c 0,0.1 0,0.1 0,0.1 v 0.2 l 0.9,-0.1 0.1,-0.2 v 0 l 1.4,-3.2 v 0 l 5.5,-0.7 -0.8,3 v 0.1 0.6 h 0.7 l 0.3,-1.4 0.6,-2.3 c 1.4,-0.1 2.7,-0.3 4.1,-0.4 l -0.1,1.1 2.3,-0.2 c 0.9,-0.1 1.8,-0.1 2.6,-0.2 l 1.5,-0.2 0.1,-1 c 1.3,-0.1 2.7,-0.1 4,-0.2 l -0.2,2.2 -0.1,1 h 0.8 v -0.3 -0.1 0 l 0.3,-2.8 2,-0.1 0.1,-0.8 -6.6,0.4 0.4,-2.8 7.3,-0.3 c -0.7,1.9 -1.1,3.9 -1.2,6 L 49.3,24 h 0.8 v -0.4 0 c 0.4,-3.2 0.6,-8.4 4.8,-8.4 M 66.3,13.1 C 62.6,12.9 59,12.8 55.3,12.8 V 10 c 4.2,0 8.4,0.2 12.6,0.5 l 0.2,1.5 -0.3,0.1 c -0.5,0.1 -1.1,0.5 -1.5,1 M 65.6,15 c 0.1,0.6 0.1,1.1 0.2,1.6 l -3.4,-0.1 -0.2,-2.9 c 1.2,0 2.4,0.1 3.6,0.2 l -0.1,0.2 -0.2,0.5 z m 5.2,6.4 C 69.9,21.3 69,21.3 68.2,21.2 l -0.8,-0.1 -0.1,-0.8 c -0.2,-1.8 -0.5,-3.7 -0.7,-5.5 v -0.3 l 0.1,-0.2 c 0.3,-0.6 0.8,-1.1 1.5,-1.3 1.2,-0.2 2.4,0.3 2.9,1.4 l 0.1,0.2 v 0.2 c 0.2,1.8 0.5,3.7 0.6,5.5 l 0.1,1.2 z m 1.4,-6.6 -0.1,-0.4 v 0 c 1.2,0.1 2.4,0.2 3.5,0.4 l 0.7,2.8 c -1.3,-0.1 -2.6,-0.2 -3.9,-0.4 0,-0.9 -0.1,-1.6 -0.2,-2.4 m 11.4,6.9 H 83.5 C 80,21.2 76.5,20.9 73,20.6 v -0.3 c -0.1,-0.8 -0.2,-1.6 -0.3,-2.4 3.2,0.3 6.5,0.6 9.7,1.1 z M 82,18.2 h -0.1 l -4.6,-0.6 -0.7,-2.8 4.2,0.5 z M 80.4,14.5 H 80.3 L 71.7,13.6 C 71,12.8 70.1,12.2 69,12.1 l -0.3,-1.5 c 3.5,0.3 7,0.7 10.4,1.2 z M 77.6,2.5 V 4.3 C 76.6,4.2 75.5,4 74.5,3.8 Z M 64.1,1.3 V 3 H 62.3 Z M 45.7,1.3 47.5,3 45.7,3.1 Z M 32.1,2.6 35.3,4 32.1,4.4 Z M 25.5,8.7 C 24.1,6 24.4,7 24.4,3.8 26.7,3.4 28.9,3 31.2,2.6 V 5.4 C 33.5,5.1 35.7,4.8 38,4.6 V 1.7 C 40.3,1.5 42.5,1.3 44.8,1.2 V 4.1 C 47,4 49.2,3.9 51.5,3.8 V 0.9 c 2.2,0 4.5,0 6.8,0 v 2.9 c 2.3,0 4.5,0.1 6.8,0.2 V 1.1 c 2.3,0.1 4.5,0.3 6.8,0.5 v 2.9 c 2.2,0.2 4.5,0.5 6.8,0.8 V 2.6 c 2.2,0.4 4.5,0.8 6.8,1.2 0,3.3 0.3,2.1 -1.2,5 C 74.2,7.1 64.1,6.3 54,6.3 44.5,6.4 35,7.2 25.5,8.7 Z M 28,11.2 C 27.1,10.6 26.6,10.2 25.8,9.5 45,6.4 64.7,6.4 84,9.7 L 82.1,11.4 72.2,10 C 57.4,8.5 42.6,8.9 28,11.2 m 2.4,0.7 C 33.9,11.4 37.5,11 41,10.7 L 40.7,12 c -1.3,0 -2.4,0.6 -3.2,1.6 l -8.3,0.9 z m -1.5,3.4 v 0 l 4.2,-0.5 -0.7,2.9 -4.8,0.6 z m 7.5,5 v 0.4 C 33,21 29.6,21.3 26.2,21.8 L 27.4,19 v 0 c 3.1,-0.4 6.2,-0.8 9.3,-1 -0.2,0.8 -0.3,1.6 -0.3,2.3 M 37,14.8 c -0.1,0.8 -0.2,1.6 -0.3,2.4 l -3.5,0.3 0.8,-2.9 c 1,-0.1 2,-0.2 3,-0.3 z m 5.7,0.1 c -0.2,1.9 -0.5,3.7 -0.7,5.5 l -0.1,0.8 -0.9,0.1 c -0.9,0.1 -1.8,0.1 -2.6,0.2 l -1.2,0.1 0.1,-1.2 c 0.2,-1.8 0.5,-3.7 0.6,-5.5 V 14.7 L 38,14.5 c 0.6,-1.1 1.8,-1.6 3,-1.4 0.6,0.2 1.2,0.6 1.5,1.2 l 0.1,0.2 z m 0.2,-1.8 c -0.4,-0.5 -0.9,-0.8 -1.4,-1 l 0.3,-1.6 C 46,10.2 50.3,10 54.5,10 v 2.7 c -3.8,0 -7.7,0.1 -11.6,0.4 m 4.3,3.5 c -1.3,0 -2.5,0.1 -3.8,0.2 0.1,-0.6 0.2,-1.2 0.2,-1.7 L 43.7,14.6 43.5,14 43.4,13.9 c 1.3,-0.1 2.7,-0.1 4,-0.2 z m 0.8,0 0.2,-2.9 c 4.4,-0.1 8.8,-0.2 13.2,0 l 0.3,2.8 -3,-0.1 c 0.2,0.2 0.3,0.5 0.4,0.8 l 6.8,0.3 0.4,2.8 L 60,20 v 0.3 c -0.5,-3 -1.6,-5.9 -5.2,-5.9 -1.5,-0.1 -3,0.7 -3.8,2 z"
   id="path436" />
<rect
   x="40.700001"
   y="68.199997"
   class="st33"
   width="2.0999999"
   height="2"
   id="rect438" />
<path
   class="st33"
   d="m 45.7,99.7 c 0.3,-0.2 0.4,-0.6 0.2,-0.9 0,-0.1 -0.1,-0.1 -0.2,-0.2 H 44 v -1 c 0,-0.2 -0.2,-0.4 -0.4,-0.4 0,0 0,0 0,0 h -0.9 c -0.2,0 -0.4,0.2 -0.4,0.4 0,0 0,0 0,0 v 0.9 0.1 h -3.9 c 2.7,-1.5 5.7,-2.6 8.7,-3.1 l 1.6,-0.3 -1.3,-1 c -2.3,-1.8 -6.5,-5 -6.8,-8.2 -0.1,-1 0.2,-2 0.7,-2.9 l 1.4,-2.4 -2.5,1.3 c -6.9,3.8 -7,10.2 -3.8,16.6 h -1 V 98 h -1.3 v 0.6 h -1.5 c -0.4,0.3 -0.4,0.7 0,1.1 4.3,0.8 8.7,0.8 13.1,0 m -5.1,-17 c -2.5,4.4 1.1,8 6.4,12.1 -3.5,0.6 -6.8,1.8 -9.7,3.7 -3.8,-7.6 -2.2,-12.8 3.3,-15.8"
   id="path440" />
<path
   class="st33"
   d="m 63.1,57.4 c -0.2,0 -0.4,0.1 -0.4,0.3 0,0.2 0.1,0.4 0.3,0.4 0,0 0,0 0,0 0.2,0 0.4,-0.1 0.4,-0.3 0,0 0,0 0,0 0,-0.2 -0.1,-0.3 -0.3,-0.4 0,0 0,0 0,0"
   id="path442" />
<path
   class="st33"
   d="m 99.4,60.7 c 0.7,-5.8 4.8,-9.8 9.6,-12.9 L 109.9,47.3 93.8,27 93.5,26.9 C 91.6,26.5 89.7,26.2 87.8,25.9 82,25.1 77.8,24.6 74.2,24.2 L 71.2,24 H 71.1 L 70.2,23.9 H 70 69.8 c -2.2,-0.1 -4.4,-0.2 -6.6,-0.3 v 0 h -0.8 v 0 H 61.7 C 53.6,23.4 46.5,23.7 41.4,24 39.6,24.1 28.3,25.2 26.2,25.5 H 25.9 C 23.3,25.9 18,26.7 16.1,27 L 0.1,47.3 1,47.8 c 4.8,3 8.9,7.1 9.6,12.9 0.7,5.8 -2.6,12.4 -4.8,17.6 -2.9,7 -5.6,13.9 -5.6,21.6 0,1.6 0.2,3.3 0.7,4.9 1.6,5.1 5.5,9.2 9.7,12.5 5,3.7 10.3,7 15.9,9.8 5.7,3 11.5,5.9 17,9.2 3.7,2.2 8.5,5.5 10.5,9.3 l 0.8,1.6 0.8,-1.6 c 2,-3.8 6.9,-7.1 10.5,-9.3 5.5,-3.3 11.3,-6.2 17,-9.2 5.6,-2.8 10.9,-6.1 15.9,-9.8 4.2,-3.3 8.1,-7.4 9.7,-12.5 0.5,-1.6 0.7,-3.2 0.7,-4.9 0,-7.7 -2.7,-14.6 -5.6,-21.6 -2,-5.2 -5.1,-11.8 -4.4,-17.6 M 54.9,145.2 C 47.2,130.5 1.1,121.9 1.1,99.9 1.1,77.9 24.4,61.7 1.4,47 L 16.5,27.8 c 27.1,-4.6 52.7,-4.6 76.8,0 L 108.4,47 c -23,14.7 0.2,30.9 0.2,52.9 0,22 -46,30.7 -53.7,45.3"
   id="path444" />
<polygon
   class="st1"
   points="32.1,2.5 32.1,4.4 35.5,4 "
   id="polygon446" />
<path
   class="st33"
   d="m 99.7,80 c -2.5,-6.1 -5.6,-13.1 -4.8,-19.8 0.6,-5.5 3.6,-9.8 7.8,-13.3 L 103.4,46.3 91.2,31.1 90.9,31 C 67,26.7 42.7,27.2 18.8,31 l -0.4,0.1 -12,15.2 0.6,0.6 c 4.2,3.5 7.2,7.8 7.8,13.3 C 15.6,67 12.5,73.9 9.9,80 7.3,86.4 4.6,92.9 4.6,99.9 c 0,1.2 0.2,2.4 0.5,3.5 2.7,8.7 15.7,15.6 23.4,19.7 5.8,3.1 11.7,5.9 17.2,9.3 3,1.7 5.7,3.8 8.3,6.1 l 0.7,0.6 0.6,-0.6 c 2.5,-2.3 5.3,-4.4 8.3,-6.1 5.6,-3.4 11.5,-6.3 17.2,-9.3 8.3,-4.4 23.9,-12.5 23.9,-23.2 0.3,-7 -2.4,-13.5 -5,-19.9 m -19.1,42.3 c -5.8,3.1 -11.7,6 -17.3,9.4 -3,1.8 -5.8,3.8 -8.4,6.2 -2.6,-2.4 -5.4,-4.4 -8.4,-6.2 C 40.9,128.3 35,125.4 29.2,122.3 21.9,118.4 8.8,111.5 6.2,103.1 5.9,102 5.7,100.9 5.7,99.8 5.7,92.9 8.3,86.5 10.9,80.2 13.5,73.9 16.6,66.9 15.8,59.9 15.1,54.1 11.9,49.6 7.6,46 L 14,37.9 30,53.7 c -10.1,16.9 -7.7,44.1 7.5,55.9 5,3.9 11.1,5.9 17.4,5.8 11,0 19.1,-5.4 24.2,-13.3 l 13.4,13.3 c -3.8,2.5 -7.8,4.8 -11.9,6.9 m -23,-81.9 c 0.1,0 0.2,0 0.3,0 2.1,0.2 4.3,0.7 6.3,1.4 v 0 l 0.6,0.2 h 0.1 v 0 l 0.7,0.3 v 0 l 0.1,0.1 0.2,0.1 0.2,0.1 c 2,0.9 3.8,2 5.5,3.4 v 0 l 1.1,0.9 v 0 l 0.3,0.3 0.1,0.1 c 1.7,1.6 3.2,3.4 4.5,5.3 v 0 0 l 0.1,0.1 v 0 c 0.1,0.2 0.3,0.4 0.4,0.6 v 0 l -0.2,-0.3 0.2,0.2 v 0 0 0.1 0 c 1.2,1.9 2.2,3.8 3,5.9 h -0.2 c -2.7,0 -5.2,1.5 -6.5,3.8 0,0.1 -0.4,0.7 -0.6,1.1 -0.5,0.9 -1.1,1.8 -1.7,2.7 0.1,-0.5 0.2,-1 0.3,-1.5 0,-0.2 0,-0.4 0.1,-0.7 0.1,-0.2 0,-0.8 0,-0.8 0,-1.8 -0.9,-3.4 -1.4,-5 1.2,-0.2 2.3,-0.6 3.4,-1.1 0.6,-0.5 0.7,-1.4 0.2,-2 0,-0.2 -0.1,-0.4 -0.1,-0.5 0,-0.1 -0.2,-0.3 -0.2,-0.4 -0.1,-0.2 -0.3,-0.4 -0.5,-0.5 -0.3,-0.6 -0.9,-1 -1.6,-0.9 -0.6,0.2 -1.1,0.4 -1.6,0.6 -0.6,0.3 -1.1,0.7 -1.7,0.9 -0.2,0.1 -0.4,0.1 -0.6,0.2 -0.7,-0.5 -1.5,-1 -2.3,-1.4 v 0 c -0.2,-0.1 -0.5,-0.2 -1,-0.4 L 64.2,53 c -1.6,-0.6 -3.3,-0.9 -5,-1 v 0 c -0.6,0 -1.1,-0.1 -1.9,-0.1 h -0.9 c -0.6,0 -1.8,-0.1 -1.9,0.7 -0.1,0.8 1,1 1.6,1.2 h 0.1 l 1.7,0.4 v 0 c 1.6,0.4 3.2,0.9 4.7,1.7 -0.9,0.2 -1.6,0.8 -1.9,1.6 L 60.5,58 c -0.2,0.5 -0.3,1 -0.4,1.5 v 0 l -0.2,1 1.2,-0.3 c 0.5,-0.1 1.1,-0.2 1.6,-0.3 0.5,0 1.1,0.1 1.6,0.3 v 0 c 0.4,0.1 0.8,0.3 1.2,0.5 h 0.1 c 0.3,0.1 0.6,0.3 0.8,0.5 v 0 0.1 0 0 c 0.6,1.5 1,3 1.2,4.6 v 0 c 0,0 0,0.1 0,0.1 v 0 c 0,0.2 0.1,0.4 0.1,0.7 v 0 c 0,0.3 0.1,0.6 0.1,0.8 v 0.4 c -0.4,-0.1 -0.9,-0.2 -1.2,-0.3 l -0.3,-0.1 v 0 H 66.2 C 65.8,67.4 65,67.2 64.6,67.1 l -0.8,-0.2 c -1.2,0 -2.4,0.5 -3.3,1.4 -0.3,0.2 -0.6,0.5 -0.9,0.7 -0.7,0.6 -1.4,1.3 -2,2 -0.1,0.1 -0.2,0.2 -0.3,0.4 -0.5,0.6 -0.9,1.2 -1.4,1.8 l -0.6,0.9 v 0 c -0.2,0.4 -0.4,0.7 -0.6,1 -0.3,0.5 -0.5,0.9 -0.7,1.4 H 46.8 V 63.1 H 44 l -0.1,-1.6 h 0.8 v -3 H 44 v -0.9 h 0.6 v -1 c 0,-0.9 -0.6,-1.7 -1.5,-2 v -0.3 c 0,-0.6 -0.4,-1.1 -1,-1.3 -0.1,0 -0.3,-0.1 -0.4,-0.1 h -0.3 c -0.6,0.1 -1.1,0.7 -1.1,1.3 v 0.3 c -0.8,0.3 -1.4,1.1 -1.4,2 v 1 h 0.6 v 0.9 h -0.6 v 3 h 0.9 L 39.7,63 H 36.9 V 76.4 H 25.1 c 0,-0.2 0,-0.4 0,-0.6 0,-0.2 0,-0.5 0,-0.7 0,-0.7 0.1,-0.9 0.1,-1.8 v 0 -0.4 c 0,-0.1 0,-0.2 0,-0.3 0.1,-1.2 0.2,-2.3 0.5,-3.4 0,-0.2 0.1,-0.5 0.1,-0.7 v 0 c 0.2,-1.1 0.4,-1.9 0.5,-2.7 0.1,-0.4 0.2,-0.7 0.3,-1.1 v -0.1 c 0.1,-0.4 0.2,-0.8 0.4,-1.4 0.2,-0.6 0.4,-1.2 0.6,-1.8 0.1,-0.4 0.3,-0.8 0.5,-1.3 0,0 0,-0.1 0,-0.1 0.3,-0.9 0.7,-1.8 1.1,-2.6 l 0.1,-0.2 c 0.6,-1.3 1.3,-2.6 2.1,-3.8 v 0 c 0.6,-1 1.3,-1.9 2,-2.8 l 0.4,-0.5 0.1,-0.1 c 0.7,-1 1.6,-1.9 2.5,-2.7 l 0.1,-0.1 c 1.2,-1.2 2.6,-2.2 4,-3.1 h 0.1 c 0.5,-0.4 1.1,-0.7 1.7,-1 0.1,-0.1 0.3,-0.2 0.4,-0.2 1.5,-0.8 3.1,-1.4 4.8,-1.9 h 0.1 c 0.7,-0.2 1.4,-0.4 2.1,-0.5 1.8,-0.3 3.6,-0.5 5.4,-0.5 h 0.3 1.2 l 0.4,0.1 v 0 c 0,0.2 0.3,0.2 0.6,0.3 M 25.1,77.3 h 28.4 c -0.9,0.3 -1.7,0.6 -2.6,1 l -0.2,0.1 -0.7,0.4 c -0.2,0.1 -0.5,0.3 -0.7,0.4 v 0 c -1.9,1 -3.1,3.1 -3.1,5.2 0,1 0.2,1.9 0.4,2.9 v 0 l 0.1,0.3 v 0 c 0.1,0.3 0.2,0.7 0.4,1.1 0.5,1.2 1,2.3 1.6,3.5 l 1.3,2.4 c 1.9,3.6 4,7.3 4.9,11.2 0.6,2.3 0.5,4.8 -0.3,7.1 v 0 0 c -0.1,0.3 -0.2,0.5 -0.3,0.8 -0.1,0.3 -0.2,0.4 -0.3,0.6 v 0 c -0.7,0 -1.5,-0.1 -2.2,-0.1 -4,-0.4 -7.8,-1.7 -11.2,-3.8 C 29.6,103.5 24.8,89.5 25.1,77.3 Z M 39.9,65.1 v -1.2 h 1.2 v 1.2 h 1.2 v -1.2 h 1.2 v 1.2 h 1.2 v -1.2 h 1.2 v 2.6 h -8.4 v -2.6 h 1.2 v 1.2 z m 1.8,-9.9 v 0 c 1.1,0 2,0.7 2,1.5 v 0.2 h -4.1 v -0.2 c 0.1,-0.9 1,-1.5 2.1,-1.5 M 41,54.4 c 0,-0.3 0.3,-0.6 0.6,-0.6 0.3,0 0.6,0.3 0.6,0.6 v 0.1 c -0.2,0 -0.4,0 -0.6,0 -0.2,0 -0.4,0 -0.6,0.1 z m 2.1,3.2 v 0.9 h -1 v -0.9 z m -1.8,1 h -1 v -0.9 h 1 z m 2.6,2.2 H 39.6 V 59.3 H 44 Z m -0.8,2.3 h -2.8 l 0.1,-1.6 H 43 Z m 2.8,7.8 H 37.5 V 67.3 H 46 Z m 0,0.8 v 4.7 h -3.1 v -2.6 c 0.1,-0.6 -0.3,-1.2 -0.9,-1.3 -0.6,-0.1 -1.2,0.3 -1.3,0.9 0,0.1 0,0.2 0,0.4 v 2.6 h -3.1 v -4.7 z m 8.9,42.6 c 2.6,-5.4 0.6,-10.9 -2,-16.1 -1.5,-3 -3.2,-5.9 -4.4,-8.6 -0.8,-1.8 -1.6,-4.1 -1.3,-6.1 0.2,-1.5 1.1,-2.8 2.3,-3.6 1,-0.6 2.1,-1.2 3.2,-1.6 v 0 l 0.1,-0.1 0.5,-0.2 c -3,5.7 -1.9,11.2 2.8,16.2 2.7,2.8 6.5,4.3 10.5,5.6 l -0.2,6.3 h 3.6 v -0.6 c 0,-1.5 -0.1,-3.1 -0.1,-4.6 2.3,0.7 4.6,1.6 6.7,2.6 -5,7 -13.1,11 -21.7,10.8 z m 14.9,-25 1.2,1.2 0.4,-0.4 -1.3,-1.4 c 1,0.5 1.8,1.2 2.5,2.1 v 0.2 0.2 l -0.3,2.7 -1.4,-1.4 -0.2,-0.1 -0.1,-0.2 c -0.1,-1 -0.4,-2 -0.8,-2.9 m 0.5,3.4 -0.6,1.3 c 0,-1.2 -0.1,-2.4 -0.1,-3.6 0.3,0.7 0.4,1.4 0.6,2.2 v 0 z m 0.7,-4.2 1.2,0.4 0.2,-0.6 -1.5,-0.5 c 0.7,0 1.4,0.2 2.1,0.4 l 0.1,0.1 0.1,0.1 1.5,2.6 -1.3,-0.3 v 0 0 c -0.7,-0.9 -1.5,-1.6 -2.4,-2.2 m 2.4,-0.9 v 0 h -0.2 c -0.8,-0.3 -1.6,-0.4 -2.4,-0.4 l 1.7,-0.3 -0.1,-0.6 -2,0.3 c 0.6,-0.3 1.2,-0.6 1.8,-0.9 l 0.2,-0.1 h 0.2 l 2.9,0.5 z M 72.9,82 72.2,82.3 73,81.7 Z m -0.2,0.8 -0.6,2.3 v 0.1 H 72 c -0.9,0.4 -1.8,0.8 -2.7,1.4 l 2,-2.2 -0.5,-0.4 -1.7,2 c 0.3,-0.7 0.6,-1.4 1,-2.1 l 0.1,-0.1 h 0.1 z m -5.6,21 v -0.9 l 2.2,1.6 v 1 z m 1.4,2 H 67.1 L 67,105.7 v -1 z m 0.4,-15.2 v 1 l -1.4,-1 v -1 z m -1.3,-2 v -0.9 0 l 1.2,0.8 v 1 z m 1.4,3.9 v 1 l -1.5,-1.2 v -1 z m 0,2 v 1 l -1.6,-1.2 v -0.9 z m 0.1,2 v 1 l -1.7,-1.3 v -0.9 z m 0,2 v 1 l -1.9,-1.4 v -0.9 z m 0.1,2 v 1 l -2,-1.5 v -0.9 z m 0.1,2 v 1 l -2.1,-1.6 V 101 Z m 0.2,-18.8 c -0.4,0.6 -0.7,1.2 -0.9,1.9 V 83.2 H 68 v 2.7 C 67.7,85 67.3,84.2 66.8,83.5 v -0.2 l 1.4,-2.7 1.4,2.7 v 0.1 z m -2.3,2.3 -1.7,-1.7 -0.4,0.4 2.3,2.3 v 0 c -0.9,-0.7 -1.9,-1.3 -3,-1.7 l -0.1,-0.1 -0.6,-2.4 2.3,1 0.2,0.1 0.1,0.1 c 0.3,0.6 0.6,1.3 0.9,2 m -3.8,-4 -0.1,-0.3 0.8,0.6 z m 0.3,3.9 h 0.2 0.2 l 1.8,0.8 -1.7,-0.4 -0.2,0.6 1.7,0.3 c -0.8,0 -1.6,0.2 -2.4,0.4 H 63.2 63.1 L 61,86.2 Z m -0.4,2.6 0.1,-0.1 0.1,-0.1 c 0.7,-0.2 1.4,-0.3 2.1,-0.4 l -1.6,0.5 0.2,0.6 1.3,-0.4 c -0.9,0.6 -1.6,1.3 -2.3,2.1 l -0.1,0.1 v 0.1 l -1.3,0.3 z m 0.6,2.5 c 0.6,-0.8 1.4,-1.5 2.2,-2 l -1.1,1.1 0.4,0.4 1.4,-1.4 c -0.6,1 -1,2.1 -1.2,3.2 v 0 0.1 l -0.1,0.1 -1.3,1.5 -0.3,-2.7 v -0.2 z m 2.4,1.3 c 0.1,-0.6 0.3,-1.2 0.6,-1.8 l -0.1,3.3 -0.5,-1.2 v -0.1 z m 3.5,7.9 C 69.7,98.6 69.7,97 69.6,95.4 l 0.6,-1.3 v 1.8 h 0.6 v -1.7 l 0.6,1.6 0.6,-0.2 -0.6,-1.7 1.2,1.3 0.5,-0.4 -0.2,-0.2 0.2,-1.8 0.5,1.8 0.6,-0.2 -0.5,-1.7 1,1.4 0.5,-0.3 -1.2,-1.7 1.6,1 0.3,-0.5 -1.5,-0.9 0.5,0.1 0.2,0.3 0.4,-0.2 0.7,0.1 0.1,-0.6 H 76.1 L 76.5,91 75,89.3 l 1.9,1.1 0.3,-0.5 -2,-1.2 2.3,0.5 0.1,-0.6 -1.9,-0.4 1.9,-0.1 v -0.6 l -2.1,0.1 2.1,-0.7 -0.2,-0.6 -2,0.7 1,-0.7 v 0 l 0.8,-0.5 -0.4,-0.4 -0.6,0.4 -1.5,-0.2 2,-0.2 -0.1,-0.6 -2.3,0.2 2,-0.9 -0.2,-0.6 -2,0.9 1.7,-1.5 -0.4,-0.5 -1.7,1.4 1.2,-1.9 -0.5,-0.3 v 0 l -0.1,-0.2 -0.6,0.2 0.1,-0.3 h -0.3 l 0.4,-0.3 -0.4,-0.5 -2,1.4 1.4,-1.9 -0.5,-0.4 -1.6,2 0.9,-2.4 -0.6,-0.2 -0.7,2 0.2,-2.1 H 70 l -0.2,2.3 -0.5,-2.2 -0.6,0.1 0.5,2.3 -0.8,-1.4 0.3,-0.5 -0.6,-0.3 -0.1,0.1 v 0 L 67.4,79.6 67.6,80 67,81.3 67.5,79 66.9,78.9 66.4,81.2 66.2,78.9 65.6,79 65.8,81.1 65,79 l -0.6,0.2 0.9,2.4 -1.6,-2 -0.5,0.4 1.4,1.9 -2,-1.4 -0.4,0.5 0.5,0.4 -0.3,0.1 0.1,0.2 -0.5,-0.4 -0.1,0.3 -0.5,0.3 1.2,1.9 -1.6,-1.4 -0.4,0.5 1.7,1.5 -2.1,-0.9 -0.3,0.5 2,0.9 -2.2,-0.3 -0.1,0.6 2,0.2 -1.4,0.2 -0.6,-0.3 -0.3,0.5 0.6,0.4 v 0.2 h 0.2 l 1.1,0.7 -2,-0.7 -0.2,0.6 2.1,0.7 -2.2,-0.1 v 0.6 l 1.9,0.1 -1.9,0.4 0.1,0.6 2.3,-0.5 -2,1.2 0.3,0.5 1.8,-1.2 -1.5,1.6 0.4,0.4 h -0.2 l 0.1,0.6 0.7,-0.1 0.4,0.2 0.2,-0.3 0.5,-0.1 -1.5,0.9 0.3,0.5 1.6,-1 -1.1,1.6 0.5,0.3 1,-1.4 -0.4,1.8 0.6,0.2 0.5,-1.8 0.2,1.8 -0.2,0.2 0.5,0.4 1.2,-1.3 -0.7,1.7 0.6,0.2 0.6,-1.6 v 1.7 h 0.6 V 94 l 0.5,1.1 -0.1,4 C 62.9,97.8 59.3,96.4 56.7,93.7 50.9,87.6 51.9,82.1 54.3,77.9 v 0 0 0 0 0 0 0 l 0.1,-0.2 v 0 0 0 l 0.1,-0.2 v 0 l 0.1,-0.2 v 0 0 H 56 L 84.4,78 v 0 c 0,9.2 -2.6,18.5 -7.6,25.3 -2.3,-1.1 -4.7,-2.1 -7.2,-2.8 m 5.1,-10.5 1.2,1.3 -0.6,-0.1 z m -1.6,-6.5 0.3,-1.1 0.5,-0.2 z m -9.9,0 -0.8,-1.3 0.6,0.2 z M 61.7,90 61,91.2 60.4,91.3 Z M 84.6,76.7 H 68.7 c 5.3,-3.3 6.9,-7.8 9.8,-7.5 1.6,0.2 4,0.8 5.5,1 v 0 c 0.4,2.1 0.5,4.3 0.6,6.5 z m -1,-7.4 c -0.8,-0.1 -1.5,-0.3 -2.3,-0.4 -0.8,-0.1 -1.8,-0.3 -2.7,-0.4 -0.3,-0.1 -0.7,-0.1 -1,0 -1.6,0.3 -3,1.9 -4.1,3 -1.5,1.7 -3.3,3.3 -5.2,4.5 l -1.2,0.7 -12.3,-0.1 c 1.6,-3.5 6.4,-9.2 8.9,-8.8 1.2,0.2 2.9,0.7 4.2,1 0.1,1.4 0.3,2.9 0.5,4.3 0.1,0.5 0.1,1.5 0.9,1.5 0.9,0 0.8,-1 0.9,-1.6 0.4,-1.6 0.9,-3.1 1.4,-4.6 3.1,-2 3.2,-8.2 9.3,-8.3 0.2,0 0.4,0 0.6,0 1.1,3 1.9,6.1 2.4,9.2 z M 63.1,56.8 66.7,56.1 c 2.1,0.2 4.6,-1.6 5.7,-1.8 0.3,0 0.6,0.2 0.7,0.4 l -2.1,1 0.3,0.6 2.3,-1.1 c 0.3,0.2 0.4,0.5 0.4,0.8 l -2.5,0.6 0.1,0.6 2.6,-0.6 c 0.1,0.2 0,0.5 -0.1,0.6 -1.2,0.7 -2.7,0.8 -3.9,1.3 0.5,1.8 1.7,4 1.6,5.8 0,0.2 0,0.4 0,0.6 l -1.3,-2.8 -0.6,0.3 1.8,3.6 c -0.1,0.7 -0.3,1.3 -0.5,2 l -1.4,-4.7 -0.6,0.2 1.7,5.5 c -0.5,1.3 -0.9,2.6 -1.2,3.9 -0.2,1.1 0,1.3 -0.2,0.1 -0.7,-3.6 -0.7,-10 -2.4,-12.4 -0.7,-0.4 -1.5,-0.8 -2.3,-1.1 -0.6,-0.2 -1.3,-0.3 -2,-0.4 -0.5,0.1 -1.3,0.3 -1.8,0.4 0,-0.9 0.5,-2.9 2.1,-2.7 m -6.8,-3.7 c -1.4,-0.4 -1.4,-0.4 0.1,-0.4 2.6,-0.1 5.1,0.2 7.5,1.1 1.1,0.4 2.1,0.9 3.1,1.5 h -0.2 l -3,0.6 C 61.5,54.3 58.9,53.8 56.3,53.1 M 93.5,114.7 79.7,101.1 C 89.9,84.1 87.3,56.6 71.9,44.8 67,41 61,39 54.8,39.1 c -11,0 -19.1,5.5 -24.2,13.5 L 14.9,37.1 19,32 c 23.8,-3.8 48,-4.3 71.7,0 l 11.4,14.2 c -4.3,3.6 -7.5,8.1 -8.2,13.9 -0.8,7 2.3,14 4.9,20.3 2.6,6.3 5.2,12.7 5.2,19.6 0,5.6 -4.8,10.7 -10.5,14.7"
   id="path448" />
</svg>
